# xmcd
#
# Track frame offsets:
#	150
#	16671
#	22386
#	56297
#	88627
#	114089
#	132191
#	162602
#
# Disc length: 2491 seconds
#
# Revision: 1
# Processed by: cddbd v1.5.2PL0 Copyright (c) Steve Scherf et al.
# Submitted via: audiograbber 1.83.01
#
DISCID=5c09b908
DTITLE=Ophidyan - Spiral Thoughts
DYEAR=2002
DGENRE=Doom
TTITLE0=Drench 
TTITLE1=Shell
TTITLE2=Spaces Of Sleep 
TTITLE3=Destined Loss 
TTITLE4=Centynal 
TTITLE5=Rain Chamber 
TTITLE6=Conspiracy 
TTITLE7=Behind -Cyrus
EXTD=
EXTT0=
EXTT1=
EXTT2=
EXTT3=
EXTT4=
EXTT5=
EXTT6=
EXTT7=
PLAYORDER=
